<svg width="71" height="20" viewBox="0 0 71 20" fill="none" xmlns="http://www.w3.org/2000/svg">
<path d="M2.99989 19C2.82656 18.9467 2.63323 18.86 2.41989 18.74C2.20656 18.6333 2.09989 18.4733 2.09989 18.26C2.09989 18.18 2.11989 18.1 2.15989 18.02L2.19989 17.94C1.99989 17.7267 1.83323 17.4933 1.69989 17.24C1.56656 17 1.49989 16.7733 1.49989 16.56C1.49989 16.4667 1.50656 16.4 1.51989 16.36C1.87989 15.8267 2.39323 15.2733 3.05989 14.7C3.72656 14.1267 4.49989 13.58 5.37989 13.06C6.27323 12.54 7.21323 12.1 8.19989 11.74C8.41323 11.46 8.60656 11.1867 8.77989 10.92C8.95323 10.6533 9.12656 10.3933 9.29989 10.14C9.28656 10.14 9.31323 10.0933 9.37989 10C9.44656 9.89334 9.51323 9.78667 9.57989 9.68001C9.64656 9.57334 9.67323 9.52667 9.65989 9.54001C9.64656 9.54001 9.59323 9.60667 9.49989 9.74001C9.41989 9.86001 9.33323 9.98001 9.23989 10.1C9.15989 10.22 9.11323 10.2867 9.09989 10.3C8.40656 10.86 7.65323 11.38 6.83989 11.86C6.03989 12.3267 5.27323 12.66 4.53989 12.86C4.16656 12.9533 3.79323 13.02 3.41989 13.06C3.04656 13.1 2.70656 13.12 2.39989 13.12C2.14656 13.12 1.93989 13.1133 1.77989 13.1C1.61989 13.0733 1.53989 13.0533 1.53989 13.04C1.53989 12.9867 1.83323 12.96 2.41989 12.96C1.53989 12.7733 0.913226 12.4533 0.539893 12C0.179893 11.5333 -0.0001074 10.9933 -0.0001074 10.38C-0.0001074 9.87334 0.0998926 9.34001 0.299893 8.78001C0.513226 8.20667 0.786559 7.65334 1.11989 7.12001C1.82656 5.98667 2.58656 5.08 3.39989 4.4C4.22656 3.72 5.13989 3.1 6.13989 2.54C5.88656 2.66001 5.62656 2.78667 5.35989 2.92C5.10656 3.04 4.86656 3.16667 4.63989 3.30001C4.54656 3.35334 4.46656 3.38 4.39989 3.38C4.34656 3.38 4.36656 3.35334 4.45989 3.30001C4.89989 3.04667 5.41989 2.78001 6.01989 2.50001C6.61989 2.20667 7.14656 1.95334 7.59989 1.74C8.74656 1.19334 9.90656 0.766671 11.0799 0.460004C12.2532 0.153338 13.2799 4.29153e-06 14.1599 4.29153e-06C14.6799 4.29153e-06 15.1199 0.0600043 15.4799 0.180004C15.6399 0.433338 15.7532 0.666672 15.8199 0.880005C15.8866 1.08 15.9199 1.26 15.9199 1.42001C15.9199 1.55334 15.8999 1.66667 15.8599 1.76001C15.8332 1.85334 15.8066 1.93334 15.7799 2C15.8466 1.96001 15.9066 1.89334 15.9599 1.8C16.0266 1.70667 16.0799 1.61334 16.1199 1.52C16.1599 1.42667 16.1799 1.34667 16.1799 1.28C16.1932 1.21334 16.2132 1.14667 16.2399 1.08C16.2666 1.04001 16.3399 1.06667 16.4599 1.16C16.5799 1.25334 16.6932 1.37334 16.7999 1.52C16.9199 1.66667 16.9732 1.8 16.9599 1.92C16.9466 2.14667 16.8332 2.42 16.6199 2.74C16.4199 3.06 16.1666 3.37334 15.8599 3.68001C15.5666 3.97334 15.2666 4.22 14.9599 4.42001C14.6532 4.60667 14.3866 4.68667 14.1599 4.66001C13.8266 4.75334 13.5266 4.83334 13.2599 4.9C13.0066 4.95334 12.8199 4.98001 12.6999 4.98001C12.5932 4.98001 12.5399 4.95334 12.5399 4.9C12.5399 4.82001 12.7266 4.64667 13.0999 4.38001C13.6599 4.00667 14.1399 3.62667 14.5399 3.24001C15.0332 2.76001 15.2799 2.38667 15.2799 2.12C15.2799 1.94667 15.1999 1.82001 15.0399 1.74C14.8932 1.66 14.6866 1.62 14.4199 1.62C14.3666 1.62 14.2999 1.62667 14.2199 1.64C14.1532 1.64 14.0799 1.64667 13.9999 1.66C13.2266 1.76667 12.3932 1.94 11.4999 2.18C10.6199 2.42 9.71989 2.74001 8.79989 3.14001C7.87989 3.52667 6.99323 4.00001 6.13989 4.56001C5.29989 5.10667 4.53323 5.74667 3.83989 6.48C3.14656 7.20001 2.57989 8.02667 2.13989 8.96001C1.96656 9.32001 1.83323 9.66667 1.73989 10C1.64656 10.3333 1.59989 10.6333 1.59989 10.9C1.59989 11.2733 1.69989 11.5733 1.89989 11.8C2.11323 12.0133 2.45323 12.12 2.91989 12.12C3.27989 12.12 3.71989 12.0533 4.23989 11.92C4.77323 11.7733 5.39989 11.5333 6.11989 11.2C6.65323 10.96 7.19323 10.6333 7.73989 10.22C8.28656 9.80667 8.79989 9.37334 9.27989 8.92001C9.75989 8.46667 10.1732 8.05334 10.5199 7.68C10.8799 7.29334 11.1266 7.01334 11.2599 6.84001C11.4066 6.80001 11.5999 6.82667 11.8399 6.92001C12.0932 7.01334 12.3132 7.12667 12.4999 7.26C12.6999 7.39334 12.7799 7.50001 12.7399 7.58001C12.7399 7.58001 12.6332 7.76001 12.4199 8.12001C12.2199 8.48001 11.9266 8.96667 11.5399 9.58001C11.1666 10.18 10.7199 10.84 10.1999 11.56L10.7199 11.52H10.7799C10.9666 11.52 11.0599 11.58 11.0599 11.7C11.0599 11.8067 10.9732 11.88 10.7999 11.92C10.6399 11.9733 10.4599 12.04 10.2599 12.12C10.0599 12.1867 9.85989 12.2533 9.65989 12.32L9.43989 12.58L9.53989 12.44L9.55989 12.4L8.17989 13.98C7.97989 14.2067 7.72656 14.48 7.41989 14.8C7.11323 15.12 6.78656 15.4467 6.43989 15.78C6.10656 16.1133 5.79323 16.42 5.49989 16.7C5.20656 16.98 4.97323 17.2067 4.79989 17.38C4.62656 17.5533 4.55323 17.6333 4.57989 17.62C5.28656 17.0867 5.96656 16.4867 6.61989 15.82C7.27323 15.1667 7.91989 14.44 8.55989 13.64C8.65323 13.5067 8.76656 13.3667 8.89989 13.22C9.03323 13.0733 9.15989 12.9267 9.27989 12.78C9.13323 12.9933 8.94656 13.2533 8.71989 13.56C8.49323 13.8667 8.22656 14.2067 7.91989 14.58C7.73323 14.8067 7.47989 15.0733 7.15989 15.38C6.83989 15.6867 6.49989 15.9933 6.13989 16.3C5.79323 16.62 5.47323 16.9 5.17989 17.14C4.89989 17.38 4.69989 17.54 4.57989 17.62C4.67323 17.62 4.74656 17.64 4.79989 17.68C4.85323 17.7067 4.80656 17.7933 4.65989 17.94C4.51323 18.0867 4.31989 18.2467 4.07989 18.42C3.85323 18.5933 3.63323 18.74 3.41989 18.86C3.21989 18.98 3.07989 19.0267 2.99989 19ZM6.35989 2.50001C7.22656 2.10001 8.14656 1.74 9.11989 1.42001C10.1066 1.10001 11.0532 0.853339 11.9599 0.680005C12.8666 0.493338 13.6332 0.400005 14.2599 0.400005C14.4466 0.400005 14.5399 0.386672 14.5399 0.360004C14.5399 0.333338 14.4932 0.313338 14.3999 0.300005C14.3199 0.273338 14.2332 0.266671 14.1399 0.280005C13.7532 0.306672 13.2266 0.366671 12.5599 0.460004C11.9066 0.540005 11.1866 0.673338 10.3999 0.860005C9.61323 1.04667 8.82656 1.31334 8.03989 1.66C7.78656 1.78 7.50656 1.91334 7.19989 2.06001C6.89323 2.20667 6.61323 2.35334 6.35989 2.50001ZM3.01989 18.12C3.37989 17.76 3.79989 17.3133 4.27989 16.78C4.75989 16.26 5.24656 15.72 5.73989 15.16C6.23323 14.6 6.67323 14.1 7.05989 13.66C7.23323 13.4733 7.40656 13.28 7.57989 13.08C7.76656 12.88 7.92656 12.6733 8.05989 12.46C7.81989 12.7533 7.65989 12.9333 7.57989 13C7.49989 13.0533 7.45323 13.08 7.43989 13.08C7.21323 13.1733 6.90656 13.3467 6.51989 13.6C6.14656 13.8533 5.74656 14.1533 5.31989 14.5C4.89323 14.86 4.49323 15.2333 4.11989 15.62C3.74656 16.02 3.43989 16.4 3.19989 16.76C2.95989 17.12 2.83989 17.4333 2.83989 17.7C2.83989 17.86 2.89989 18 3.01989 18.12ZM17.2394 14.44C17.2394 14.3733 17.2861 14.28 17.3794 14.16C17.4728 14.0533 17.5928 13.92 17.7394 13.76C18.0728 13.3867 18.3394 13.0733 18.5394 12.82C18.7394 12.5533 18.8594 12.3867 18.8994 12.32C18.7528 12.48 18.5794 12.6867 18.3794 12.94C18.1928 13.18 17.9728 13.4267 17.7194 13.68C17.8794 13.4933 18.0328 13.2933 18.1794 13.08C18.3261 12.8667 18.4461 12.6867 18.5394 12.54C18.6328 12.3933 18.6728 12.32 18.6594 12.32L15.5394 12.52C15.5128 12.5467 15.4994 12.5667 15.4994 12.58C15.5528 12.58 15.6394 12.58 15.7594 12.58C15.8794 12.5667 15.9794 12.56 16.0594 12.56C16.1528 12.5467 16.1594 12.5467 16.0794 12.56L15.4594 12.62C15.2328 12.9267 14.8194 13.1933 14.2194 13.42C14.0061 13.38 13.8394 13.3 13.7194 13.18C13.6128 13.0467 13.5328 12.9 13.4794 12.74C13.4261 12.74 13.3728 12.7467 13.3194 12.76C13.2794 12.76 13.2394 12.76 13.1994 12.76C13.0528 12.76 12.8128 12.78 12.4794 12.82C12.1594 12.86 11.8394 12.9 11.5194 12.94C11.1994 12.9667 10.9861 12.9867 10.8794 13C10.8528 13 10.8328 13.0067 10.8194 13.02C10.7928 13.02 10.7661 13.02 10.7394 13.02C10.5794 13.02 10.4994 12.9733 10.4994 12.88C10.4994 12.7867 10.5994 12.68 10.7994 12.56C10.9861 12.4267 11.2061 12.34 11.4594 12.3C11.5661 12.2733 11.8061 12.2467 12.1794 12.22C12.5661 12.18 12.9861 12.1333 13.4394 12.08C13.4394 11.9867 13.4461 11.9 13.4594 11.82C13.4861 11.74 13.5061 11.6733 13.5194 11.62C13.6128 11.3133 13.8328 10.8733 14.1794 10.3C14.5394 9.71334 14.9661 9.06001 15.4594 8.34001C15.9661 7.62001 16.4861 6.89334 17.0194 6.16001C17.5528 5.42667 18.0594 4.74667 18.5394 4.12C19.0194 3.48001 19.4061 2.96001 19.6994 2.56L16.3994 2.92C16.3061 2.97334 16.2194 3.00001 16.1394 3.00001C16.0461 3.00001 15.9728 2.95334 15.9194 2.86C15.8661 2.75334 15.8394 2.63334 15.8394 2.50001C15.8394 2.35334 15.8594 2.2 15.8994 2.04001C15.9528 1.86667 16.0128 1.70667 16.0794 1.56H16.1194C16.1194 1.33334 16.2328 1.22001 16.4594 1.22001C16.5661 1.22001 16.6794 1.23334 16.7994 1.26C16.9328 1.28667 17.0661 1.30001 17.1994 1.30001C17.4261 1.28667 17.6661 1.26 17.9194 1.22001C18.1728 1.16667 18.3194 1.10001 18.3594 1.02001C18.4128 0.940005 18.4528 0.900005 18.4794 0.900005C18.5194 0.900005 18.5594 0.966671 18.5994 1.1C18.6128 1.12667 18.6194 1.16667 18.6194 1.22001C18.6194 1.31334 18.5861 1.41334 18.5194 1.52L20.0994 1.46C20.1128 1.42001 20.1194 1.38001 20.1194 1.34C20.1061 1.3 20.0928 1.26 20.0794 1.22001C20.0661 1.16667 20.0594 1.12 20.0594 1.08C20.0594 0.973338 20.1194 0.920004 20.2394 0.920004C20.2661 0.920004 20.3328 0.933338 20.4394 0.960005C20.5461 1.00001 20.6794 1.06001 20.8394 1.14001C20.9994 1.20667 21.1594 1.29334 21.3194 1.40001H21.6594L21.9594 1.38C22.7994 1.32667 23.4461 1.25334 23.8994 1.16C24.3528 1.06667 24.6728 0.973339 24.8594 0.880005C25.0594 0.786672 25.1794 0.706672 25.2194 0.640004C25.2594 0.560005 25.2928 0.513338 25.3194 0.500005C25.3728 0.473338 25.4061 0.460004 25.4194 0.460004C25.4594 0.460004 25.4794 0.480004 25.4794 0.520005C25.4794 0.600005 25.4328 0.686671 25.3394 0.780005C25.2994 0.833338 25.3194 0.893338 25.3994 0.960005C25.4794 1.02667 25.5661 1.1 25.6594 1.18C25.7661 1.24667 25.8194 1.32 25.8194 1.40001C25.8194 1.48001 25.7328 1.56667 25.5594 1.66C25.3994 1.74 25.1061 1.82667 24.6794 1.92C24.2528 2.00001 23.6328 2.09334 22.8194 2.2C22.8061 2.2 22.7061 2.28667 22.5194 2.46C22.3461 2.62001 22.1328 2.82667 21.8794 3.08001C21.6394 3.33334 21.3928 3.58667 21.1394 3.84C20.8994 4.08001 20.6928 4.28667 20.5194 4.46001C20.3461 4.63334 20.2461 4.72 20.2194 4.72C20.2061 4.72 20.2661 4.64 20.3994 4.48001C20.5461 4.30667 20.7261 4.1 20.9394 3.86001C21.1528 3.60667 21.3661 3.36 21.5794 3.12C21.8061 2.86667 21.9861 2.66001 22.1194 2.50001C22.2661 2.34001 22.3328 2.26 22.3194 2.26L22.0194 2.28C22.0194 2.34667 22.0128 2.4 21.9994 2.44001C21.8394 2.61334 21.5861 2.90001 21.2394 3.30001C20.9061 3.68667 20.5128 4.14667 20.0594 4.68C19.6061 5.21334 19.1328 5.78001 18.6394 6.38001C18.1461 6.96667 17.6594 7.54667 17.1794 8.12001C16.7128 8.69334 16.2861 9.22001 15.8994 9.70001C15.5261 10.1667 15.2261 10.5467 14.9994 10.84C14.8928 10.9733 14.8061 11.12 14.7394 11.28C14.6861 11.4267 14.6528 11.5133 14.6394 11.54C15.0128 11.5933 15.2794 11.7 15.4394 11.86L15.6594 11.84C16.1394 11.8 16.7261 11.6933 17.4194 11.52C18.1128 11.3467 18.8261 11.26 19.5594 11.26H19.5794C19.6461 11.26 19.7128 11.2867 19.7794 11.34C19.8594 11.3933 19.9128 11.42 19.9394 11.42C20.0461 11.42 20.1328 11.4933 20.1994 11.64C20.2661 11.7867 20.2994 11.8933 20.2994 11.96C20.2994 12.0133 20.1994 12.1333 19.9994 12.32C19.8128 12.4933 19.5728 12.7 19.2794 12.94C18.9861 13.18 18.6861 13.4133 18.3794 13.64C18.0861 13.8667 17.8261 14.0533 17.5994 14.2C17.3861 14.36 17.2661 14.44 17.2394 14.44ZM25.8769 1.12001C26.3569 1.01334 26.8503 0.933338 27.3569 0.880005C27.8769 0.813338 28.4036 0.773338 28.9369 0.760005C28.3903 0.773338 27.8503 0.813338 27.3169 0.880005C26.7969 0.946671 26.3169 1.02667 25.8769 1.12001ZM32.6569 1.1C32.1903 1.00667 31.7169 0.933338 31.2369 0.880005C30.7703 0.813338 30.3103 0.773338 29.8569 0.760005C30.3503 0.773338 30.8303 0.806672 31.2969 0.860005C31.7769 0.913339 32.2303 0.993338 32.6569 1.1ZM25.4769 13.62C25.1436 13.5933 24.8236 13.4333 24.5169 13.14C24.2103 12.8333 24.0569 12.4533 24.0569 12C24.0569 11.56 24.1969 11.0467 24.4769 10.46C24.7569 9.87334 25.1303 9.24667 25.5969 8.58001C26.0636 7.90001 26.5703 7.22667 27.1169 6.56001C27.6769 5.88001 28.2369 5.24001 28.7969 4.64001C29.3703 4.02667 29.8969 3.48667 30.3769 3.02C30.8569 2.55334 31.2436 2.19334 31.5369 1.94001C31.4836 1.99334 31.3636 2.08667 31.1769 2.22001C30.9903 2.35334 30.8036 2.50001 30.6169 2.66C30.6703 2.59334 30.7969 2.47334 30.9969 2.3C31.2103 2.12667 31.3836 1.98667 31.5169 1.88001C30.7969 1.88001 30.0103 1.90667 29.1569 1.96001C28.3169 2 27.4969 2.11334 26.6969 2.3C26.5636 2.32667 26.3369 2.39334 26.0169 2.50001C25.6969 2.60667 25.3303 2.75334 24.9169 2.94C24.5169 3.11334 24.1169 3.31334 23.7169 3.54001C23.3169 3.75334 22.9703 3.99334 22.6769 4.26C22.3969 4.52667 22.2169 4.80001 22.1369 5.08001C22.1903 5.18667 22.2169 5.28667 22.2169 5.38001C22.2169 5.56667 22.1303 5.66001 21.9569 5.66001C21.7969 5.66001 21.6169 5.56667 21.4169 5.38001C21.2303 5.18001 21.1369 4.91334 21.1369 4.58C21.1369 4.40667 21.1636 4.24001 21.2169 4.08C21.3636 3.64 21.6036 3.26 21.9369 2.94L21.8969 2.96001C21.8436 2.98667 21.8236 2.99334 21.8369 2.98001C21.8636 2.96667 21.9036 2.94001 21.9569 2.90001L21.9369 2.94C22.5369 2.60667 23.1903 2.28001 23.8969 1.96001C24.6169 1.64001 25.4236 1.37334 26.3169 1.16C27.2103 0.946672 28.2103 0.840005 29.3169 0.840005C29.8236 0.840005 30.3569 0.866672 30.9169 0.920004C31.4769 0.973338 32.0636 1.06 32.6769 1.18C32.7436 1.19334 32.8303 1.20667 32.9369 1.22001C33.0569 1.23334 33.1369 1.24001 33.1769 1.24001H33.1969C33.1969 1.22667 33.0436 1.18667 32.7369 1.12001C32.6969 1.12001 32.6703 1.11334 32.6569 1.1C32.8303 0.993338 32.9703 0.920005 33.0769 0.880005C33.1836 0.840005 33.2836 0.820004 33.3769 0.820004C33.4703 0.820004 33.6303 0.833338 33.8569 0.860005C34.0969 0.886671 34.3236 0.940005 34.5369 1.02001C34.7503 1.10001 34.8636 1.22 34.8769 1.38C35.5169 1.43334 36.1369 1.54 36.7369 1.70001C37.3503 1.86001 37.8036 2.02667 38.0969 2.2C38.3369 2.33334 38.4569 2.47334 38.4569 2.62001C38.4569 2.78 38.3303 2.84 38.0769 2.80001C37.8369 2.76 37.5236 2.71334 37.1369 2.66C36.7636 2.60667 36.3636 2.55334 35.9369 2.50001C35.5236 2.44667 35.1236 2.40667 34.7369 2.38C34.3636 2.35334 34.0569 2.35334 33.8169 2.38C33.2836 2.76667 32.6569 3.24667 31.9369 3.82001C31.2169 4.39334 30.4769 5.02667 29.7169 5.72001C28.9703 6.41334 28.2769 7.14667 27.6369 7.92001C27.0103 8.69334 26.5036 9.47334 26.1169 10.26C25.7303 11.0467 25.5503 11.8133 25.5769 12.56C25.5903 12.7733 25.6769 12.96 25.8369 13.12C25.9969 13.2667 26.0769 13.38 26.0769 13.46C26.0769 13.5133 26.0303 13.5533 25.9369 13.58C25.8569 13.6067 25.7036 13.62 25.4769 13.62ZM24.7969 1.42001C24.7169 1.43334 24.7303 1.42667 24.8369 1.40001C24.9569 1.37334 25.0903 1.34 25.2369 1.30001L25.6969 1.16C25.6703 1.16 25.6836 1.16 25.7369 1.16C25.8036 1.14667 25.8503 1.13334 25.8769 1.12001C25.7969 1.14667 25.7436 1.16 25.7169 1.16H25.6969C25.7503 1.14667 25.7503 1.14667 25.6969 1.16C25.6569 1.17334 25.5969 1.19334 25.5169 1.22001C25.4369 1.23334 25.3436 1.26001 25.2369 1.30001L24.7969 1.42001ZM21.9569 2.90001C22.3303 2.55334 22.7703 2.26 23.2769 2.02C23.7836 1.78 24.2903 1.58 24.7969 1.42001C24.3169 1.58 23.8569 1.78 23.4169 2.02C22.9903 2.24667 22.5836 2.49334 22.1969 2.76L21.9569 2.90001ZM41.4594 13.6C41.4061 13.6 41.3794 13.5733 41.3794 13.52C41.3794 13.4667 41.4194 13.3733 41.4994 13.24C41.6061 13.0267 41.6594 12.86 41.6594 12.74C41.6594 12.54 41.5461 12.4 41.3194 12.32C41.0928 12.24 40.7794 12.2 40.3794 12.2C40.1794 12.2 39.9528 12.2133 39.6994 12.24C39.4594 12.2533 39.1928 12.2733 38.8994 12.3C38.5261 12.34 38.0994 12.4067 37.6194 12.5C37.1394 12.5933 36.6661 12.7 36.1994 12.82C35.7461 12.9267 35.3594 13.04 35.0394 13.16C35.1994 13.12 35.4128 13.0667 35.6794 13C35.9461 12.9333 36.2128 12.8667 36.4794 12.8C36.7594 12.7333 36.9794 12.6867 37.1394 12.66C37.2061 12.6467 37.2594 12.64 37.2994 12.64C37.3528 12.64 37.3661 12.6467 37.3394 12.66C37.2061 12.6867 36.9861 12.74 36.6794 12.82C36.3728 12.9 36.0528 12.9867 35.7194 13.08C35.3861 13.16 35.0928 13.2333 34.8394 13.3C34.5994 13.3667 34.4661 13.4067 34.4394 13.42C34.3861 13.4333 34.3394 13.44 34.2994 13.44C34.2594 13.4533 34.2261 13.46 34.1994 13.46C34.0128 13.46 33.8728 13.3867 33.7794 13.24C33.6994 13.1067 33.6261 13 33.5594 12.92C33.4794 12.84 33.4528 12.7267 33.4794 12.58C33.4261 12.58 33.3861 12.5867 33.3594 12.6C33.3594 12.5467 33.3528 12.4867 33.3394 12.42C33.3394 12.3533 33.3394 12.2933 33.3394 12.24C33.3394 12.12 33.3594 12.0467 33.3994 12.02C33.6794 11.58 33.9794 11.1533 34.2994 10.74C34.6194 10.3267 34.9528 9.89334 35.2994 9.44001C36.2861 8.17334 37.3394 6.84001 38.4594 5.44001C39.5928 4.04 40.6728 2.69334 41.6994 1.40001C41.6861 1.33334 41.6661 1.25334 41.6394 1.16C41.6128 1.05334 41.5994 0.953338 41.5994 0.860005C41.5994 0.726672 41.6328 0.613338 41.6994 0.520005C41.7661 0.426672 41.8861 0.380005 42.0594 0.380005C42.2061 0.380005 42.3594 0.406672 42.5194 0.460004C42.6794 0.526672 42.8661 0.633339 43.0794 0.780005C43.2928 0.926671 43.4794 1.08 43.6394 1.24001C43.8128 1.40001 43.8994 1.55334 43.8994 1.70001C43.8994 1.91334 43.7128 2.21334 43.3394 2.60001C42.9794 2.97334 42.5394 3.43334 42.0194 3.98C41.6994 4.31334 41.3328 4.72001 40.9194 5.20001C40.5061 5.66667 40.0928 6.14001 39.6794 6.62C39.2794 7.10001 38.9261 7.52001 38.6194 7.88001C38.3261 8.22667 38.1394 8.44667 38.0594 8.54001C38.0728 8.48667 38.1528 8.36667 38.2994 8.18001C38.4594 7.98001 38.6394 7.76001 38.8394 7.52001C39.0528 7.26667 39.2394 7.04667 39.3994 6.86001C39.4661 6.79334 39.5661 6.67334 39.6994 6.50001C39.8328 6.32667 39.9728 6.14001 40.1194 5.94001C40.2661 5.72667 40.3928 5.54667 40.4994 5.40001C40.6061 5.24001 40.6594 5.14667 40.6594 5.12001C40.6594 5.12001 40.6461 5.12667 40.6194 5.14C40.6061 5.15334 40.5728 5.19334 40.5194 5.26001C40.4528 5.32667 40.3128 5.49334 40.0994 5.76001C39.8994 6.02667 39.6661 6.32667 39.3994 6.66C39.1461 6.99334 38.8994 7.31334 38.6594 7.62001C38.4328 7.91334 38.2528 8.13334 38.1194 8.28001C37.5728 8.86667 37.0661 9.43334 36.5994 9.98001C36.1328 10.5133 35.7461 10.9933 35.4394 11.42C35.4528 11.42 35.4661 11.42 35.4794 11.42C35.4928 11.4067 35.5061 11.4 35.5194 11.4C35.6394 11.3467 35.8594 11.2867 36.1794 11.22C36.4994 11.1533 36.8728 11.0867 37.2994 11.02C37.7261 10.9533 38.1528 10.8933 38.5794 10.84C39.0061 10.7867 39.3861 10.7467 39.7194 10.72C40.0661 10.68 40.3128 10.66 40.4594 10.66C40.6594 10.66 40.8928 10.68 41.1594 10.72C41.4261 10.7467 41.6794 10.7933 41.9194 10.86C42.1728 10.9133 42.3528 10.9933 42.4594 11.1C42.2194 10.9933 41.9594 10.9133 41.6794 10.86C41.4128 10.8067 41.1261 10.7733 40.8194 10.76C41.2861 10.8 41.7328 10.9 42.1594 11.06C42.4394 11.1533 42.6328 11.2733 42.7394 11.42C42.8594 11.5667 42.9194 11.72 42.9194 11.88C42.9194 12.0933 42.8394 12.32 42.6794 12.56C42.5328 12.7867 42.3528 13 42.1394 13.2C42.0861 13.2533 41.9794 13.3333 41.8194 13.44C41.6594 13.5467 41.5394 13.6 41.4594 13.6ZM35.7194 11.36C35.9194 11.32 36.1794 11.28 36.4994 11.24C36.8194 11.1867 37.1394 11.1333 37.4594 11.08C37.7928 11.0267 38.0594 10.98 38.2594 10.94C38.5661 10.8733 38.9461 10.82 39.3994 10.78C39.8528 10.74 40.3128 10.7333 40.7794 10.76C40.6994 10.7467 40.6194 10.74 40.5394 10.74C40.4594 10.74 40.3728 10.74 40.2794 10.74C39.7994 10.74 39.2261 10.78 38.5594 10.86C38.4261 10.8733 38.1861 10.9133 37.8394 10.98C37.4928 11.0333 37.1194 11.0933 36.7194 11.16C36.3328 11.2267 35.9994 11.2933 35.7194 11.36ZM46.5983 13.88C46.3317 13.88 46.105 13.8067 45.9183 13.66C45.745 13.5133 45.545 13.32 45.3183 13.08C45.0117 13.1067 44.7517 13.02 44.5383 12.82C44.3383 12.62 44.185 12.3533 44.0783 12.02C43.985 11.6867 43.9383 11.3533 43.9383 11.02C43.9383 10.8467 43.945 10.68 43.9583 10.52C43.985 10.36 44.025 10.2133 44.0783 10.08C45.5183 6.12001 48.345 2.97334 52.5583 0.640004C52.825 0.626671 53.1117 0.700005 53.4183 0.860005C53.725 1.00667 54.0117 1.20667 54.2783 1.46C54.545 1.7 54.745 1.97334 54.8783 2.28C54.9317 2.12001 54.9717 1.97334 54.9983 1.84C55.0383 1.69334 55.065 1.55334 55.0783 1.42001C55.105 1.20667 55.0583 1.06667 54.9383 1C54.8317 0.920005 54.7317 0.866672 54.6383 0.840005C54.545 0.800005 54.5317 0.746672 54.5983 0.680005C54.6517 0.640005 54.7117 0.613338 54.7783 0.600005C54.8583 0.586672 54.9383 0.580005 55.0183 0.580005C55.1117 0.580005 55.1983 0.586672 55.2783 0.600005C55.3717 0.600005 55.445 0.600005 55.4983 0.600005C55.8317 0.600005 56.1317 0.706671 56.3983 0.920004C56.6783 1.12 56.7917 1.42667 56.7383 1.84C56.685 2.25334 56.5383 2.74 56.2983 3.30001C56.0583 3.84667 55.7583 4.42001 55.3983 5.02001C55.0383 5.60667 54.6583 6.19334 54.2583 6.78001C53.8583 7.36667 53.4717 7.90667 53.0983 8.40001C52.725 8.89334 52.405 9.31334 52.1383 9.66001C52.325 9.47334 52.585 9.19334 52.9183 8.82001C53.265 8.43334 53.5783 8.04667 53.8583 7.66001C53.9383 7.54001 54.065 7.34667 54.2383 7.08C54.425 6.8 54.6117 6.51334 54.7983 6.22001C54.9983 5.92667 55.165 5.68001 55.2983 5.48001C55.4317 5.26667 55.4917 5.17334 55.4783 5.20001C55.185 5.84001 54.845 6.46001 54.4583 7.06001C54.0717 7.66001 53.685 8.20001 53.2983 8.68001C52.925 9.16001 52.605 9.55334 52.3383 9.86001C52.085 10.1667 51.9383 10.34 51.8983 10.38C51.2983 11.0733 50.665 11.6867 49.9983 12.22C49.3317 12.74 48.6983 13.1467 48.0983 13.44C47.4983 13.7333 46.9983 13.88 46.5983 13.88ZM46.1383 13.12H46.1583C46.185 13.12 46.225 13.1133 46.2783 13.1C46.3317 13.0867 46.3983 13.0533 46.4783 13C46.7183 12.8667 47.0383 12.6533 47.4383 12.36C47.8517 12.0667 48.2517 11.7533 48.6383 11.42C49.105 11.02 49.625 10.44 50.1983 9.68001C50.7717 8.92001 51.4183 8.03334 52.1383 7.02001C51.4983 7.91334 50.8117 8.77334 50.0783 9.60001C49.3583 10.4267 48.665 11.14 47.9983 11.74C47.345 12.3267 46.785 12.7333 46.3183 12.96C46.585 12.8 46.9583 12.52 47.4383 12.12C47.9183 11.72 48.4583 11.2267 49.0583 10.64C49.6583 10.04 50.2583 9.37334 50.8583 8.64001C51.0983 8.34667 51.3583 8.00001 51.6383 7.60001C51.9317 7.20001 52.225 6.79334 52.5183 6.38001C52.825 5.96667 53.105 5.58667 53.3583 5.24001L53.1383 5.58001L53.8983 4.52001L53.3583 5.24001C53.625 4.81334 53.865 4.40667 54.0783 4.02C54.305 3.62 54.4917 3.24001 54.6383 2.88001C54.545 2.8 54.4383 2.71334 54.3183 2.62001C54.1983 2.52667 54.0783 2.44 53.9583 2.36C53.825 2.28001 53.6717 2.24001 53.4983 2.24001C53.045 2.24001 52.4383 2.51334 51.6783 3.06001C51.185 3.43334 50.6383 3.89334 50.0383 4.44C49.4517 4.97334 48.8583 5.59334 48.2583 6.30001C47.6717 7.00667 47.125 7.80001 46.6183 8.68001C46.1117 9.56001 45.6983 10.5333 45.3783 11.6C45.3517 11.7067 45.3383 11.8 45.3383 11.88C45.3383 12.1333 45.4117 12.3867 45.5583 12.64C45.7183 12.8933 45.905 13.02 46.1183 13.02C46.1583 13.02 46.2183 13.0067 46.2983 12.98C46.1917 13.0467 46.1383 13.0933 46.1383 13.12ZM52.1383 7.02001C52.1783 6.96667 52.2317 6.88667 52.2983 6.78001C52.3783 6.66001 52.4383 6.56667 52.4783 6.50001C52.5317 6.42001 52.5383 6.41334 52.4983 6.48L52.1383 7.02001ZM56.7108 19C56.5375 18.9467 56.3442 18.86 56.1308 18.74C55.9175 18.6333 55.8108 18.4733 55.8108 18.26C55.8108 18.18 55.8308 18.1 55.8708 18.02L55.9108 17.94C55.7108 17.7267 55.5442 17.4933 55.4108 17.24C55.2775 17 55.2108 16.7733 55.2108 16.56C55.2108 16.4667 55.2175 16.4 55.2308 16.36C55.5908 15.8267 56.1042 15.2733 56.7708 14.7C57.4375 14.1267 58.2108 13.58 59.0908 13.06C59.9842 12.54 60.9242 12.1 61.9108 11.74C62.1242 11.46 62.3175 11.1867 62.4908 10.92C62.6642 10.6533 62.8375 10.3933 63.0108 10.14C62.9975 10.14 63.0242 10.0933 63.0908 10C63.1575 9.89334 63.2242 9.78667 63.2908 9.68001C63.3575 9.57334 63.3842 9.52667 63.3708 9.54001C63.3575 9.54001 63.3042 9.60667 63.2108 9.74001C63.1308 9.86001 63.0442 9.98001 62.9508 10.1C62.8708 10.22 62.8242 10.2867 62.8108 10.3C62.1175 10.86 61.3642 11.38 60.5508 11.86C59.7508 12.3267 58.9842 12.66 58.2508 12.86C57.8775 12.9533 57.5042 13.02 57.1308 13.06C56.7575 13.1 56.4175 13.12 56.1108 13.12C55.8575 13.12 55.6508 13.1133 55.4908 13.1C55.3308 13.0733 55.2508 13.0533 55.2508 13.04C55.2508 12.9867 55.5442 12.96 56.1308 12.96C55.2508 12.7733 54.6242 12.4533 54.2508 12C53.8908 11.5333 53.7108 10.9933 53.7108 10.38C53.7108 9.87334 53.8108 9.34001 54.0108 8.78001C54.2242 8.20667 54.4975 7.65334 54.8308 7.12001C55.5375 5.98667 56.2975 5.08 57.1108 4.4C57.9375 3.72 58.8508 3.1 59.8508 2.54C59.5975 2.66001 59.3375 2.78667 59.0708 2.92C58.8175 3.04 58.5775 3.16667 58.3508 3.30001C58.2575 3.35334 58.1775 3.38 58.1108 3.38C58.0575 3.38 58.0775 3.35334 58.1708 3.30001C58.6108 3.04667 59.1308 2.78001 59.7308 2.50001C60.3308 2.20667 60.8575 1.95334 61.3108 1.74C62.4575 1.19334 63.6175 0.766671 64.7908 0.460004C65.9642 0.153338 66.9908 4.29153e-06 67.8708 4.29153e-06C68.3908 4.29153e-06 68.8308 0.0600043 69.1908 0.180004C69.3508 0.433338 69.4642 0.666672 69.5308 0.880005C69.5975 1.08 69.6308 1.26 69.6308 1.42001C69.6308 1.55334 69.6108 1.66667 69.5708 1.76001C69.5442 1.85334 69.5175 1.93334 69.4908 2C69.5575 1.96001 69.6175 1.89334 69.6708 1.8C69.7375 1.70667 69.7908 1.61334 69.8308 1.52C69.8708 1.42667 69.8908 1.34667 69.8908 1.28C69.9042 1.21334 69.9242 1.14667 69.9508 1.08C69.9775 1.04001 70.0508 1.06667 70.1708 1.16C70.2908 1.25334 70.4042 1.37334 70.5108 1.52C70.6308 1.66667 70.6842 1.8 70.6708 1.92C70.6575 2.14667 70.5442 2.42 70.3308 2.74C70.1308 3.06 69.8775 3.37334 69.5708 3.68001C69.2775 3.97334 68.9775 4.22 68.6708 4.42001C68.3642 4.60667 68.0975 4.68667 67.8708 4.66001C67.5375 4.75334 67.2375 4.83334 66.9708 4.9C66.7175 4.95334 66.5308 4.98001 66.4108 4.98001C66.3042 4.98001 66.2508 4.95334 66.2508 4.9C66.2508 4.82001 66.4375 4.64667 66.8108 4.38001C67.3708 4.00667 67.8508 3.62667 68.2508 3.24001C68.7442 2.76001 68.9908 2.38667 68.9908 2.12C68.9908 1.94667 68.9108 1.82001 68.7508 1.74C68.6042 1.66 68.3975 1.62 68.1308 1.62C68.0775 1.62 68.0108 1.62667 67.9308 1.64C67.8642 1.64 67.7908 1.64667 67.7108 1.66C66.9375 1.76667 66.1042 1.94 65.2108 2.18C64.3308 2.42 63.4308 2.74001 62.5108 3.14001C61.5908 3.52667 60.7042 4.00001 59.8508 4.56001C59.0108 5.10667 58.2442 5.74667 57.5508 6.48C56.8575 7.20001 56.2908 8.02667 55.8508 8.96001C55.6775 9.32001 55.5442 9.66667 55.4508 10C55.3575 10.3333 55.3108 10.6333 55.3108 10.9C55.3108 11.2733 55.4108 11.5733 55.6108 11.8C55.8242 12.0133 56.1642 12.12 56.6308 12.12C56.9908 12.12 57.4308 12.0533 57.9508 11.92C58.4842 11.7733 59.1108 11.5333 59.8308 11.2C60.3642 10.96 60.9042 10.6333 61.4508 10.22C61.9975 9.80667 62.5108 9.37334 62.9908 8.92001C63.4708 8.46667 63.8842 8.05334 64.2308 7.68C64.5908 7.29334 64.8375 7.01334 64.9708 6.84001C65.1175 6.80001 65.3108 6.82667 65.5508 6.92001C65.8042 7.01334 66.0242 7.12667 66.2108 7.26C66.4108 7.39334 66.4908 7.50001 66.4508 7.58001C66.4508 7.58001 66.3442 7.76001 66.1308 8.12001C65.9308 8.48001 65.6375 8.96667 65.2508 9.58001C64.8775 10.18 64.4308 10.84 63.9108 11.56L64.4308 11.52H64.4908C64.6775 11.52 64.7708 11.58 64.7708 11.7C64.7708 11.8067 64.6842 11.88 64.5108 11.92C64.3508 11.9733 64.1708 12.04 63.9708 12.12C63.7708 12.1867 63.5708 12.2533 63.3708 12.32L63.1508 12.58L63.2508 12.44L63.2708 12.4L61.8908 13.98C61.6908 14.2067 61.4375 14.48 61.1308 14.8C60.8242 15.12 60.4975 15.4467 60.1508 15.78C59.8175 16.1133 59.5042 16.42 59.2108 16.7C58.9175 16.98 58.6842 17.2067 58.5108 17.38C58.3375 17.5533 58.2642 17.6333 58.2908 17.62C58.9975 17.0867 59.6775 16.4867 60.3308 15.82C60.9842 15.1667 61.6308 14.44 62.2708 13.64C62.3642 13.5067 62.4775 13.3667 62.6108 13.22C62.7442 13.0733 62.8708 12.9267 62.9908 12.78C62.8442 12.9933 62.6575 13.2533 62.4308 13.56C62.2042 13.8667 61.9375 14.2067 61.6308 14.58C61.4442 14.8067 61.1908 15.0733 60.8708 15.38C60.5508 15.6867 60.2108 15.9933 59.8508 16.3C59.5042 16.62 59.1842 16.9 58.8908 17.14C58.6108 17.38 58.4108 17.54 58.2908 17.62C58.3842 17.62 58.4575 17.64 58.5108 17.68C58.5642 17.7067 58.5175 17.7933 58.3708 17.94C58.2242 18.0867 58.0308 18.2467 57.7908 18.42C57.5642 18.5933 57.3442 18.74 57.1308 18.86C56.9308 18.98 56.7908 19.0267 56.7108 19ZM60.0708 2.50001C60.9375 2.10001 61.8575 1.74 62.8308 1.42001C63.8175 1.10001 64.7642 0.853339 65.6708 0.680005C66.5775 0.493338 67.3442 0.400005 67.9708 0.400005C68.1575 0.400005 68.2508 0.386672 68.2508 0.360004C68.2508 0.333338 68.2042 0.313338 68.1108 0.300005C68.0308 0.273338 67.9442 0.266671 67.8508 0.280005C67.4642 0.306672 66.9375 0.366671 66.2708 0.460004C65.6175 0.540005 64.8975 0.673338 64.1108 0.860005C63.3242 1.04667 62.5375 1.31334 61.7508 1.66C61.4975 1.78 61.2175 1.91334 60.9108 2.06001C60.6042 2.20667 60.3242 2.35334 60.0708 2.50001ZM56.7308 18.12C57.0908 17.76 57.5108 17.3133 57.9908 16.78C58.4708 16.26 58.9575 15.72 59.4508 15.16C59.9442 14.6 60.3842 14.1 60.7708 13.66C60.9442 13.4733 61.1175 13.28 61.2908 13.08C61.4775 12.88 61.6375 12.6733 61.7708 12.46C61.5308 12.7533 61.3708 12.9333 61.2908 13C61.2108 13.0533 61.1642 13.08 61.1508 13.08C60.9242 13.1733 60.6175 13.3467 60.2308 13.6C59.8575 13.8533 59.4575 14.1533 59.0308 14.5C58.6042 14.86 58.2042 15.2333 57.8308 15.62C57.4575 16.02 57.1508 16.4 56.9108 16.76C56.6708 17.12 56.5508 17.4333 56.5508 17.7C56.5508 17.86 56.6108 18 56.7308 18.12Z" 
fill="currentColor"/>
</svg>
